inDegrees=no
num_controls=7
num_derivatives=13
num_iterations=113
num_multipliers=7
num_parameters=0
num_slacks=7
num_states=26
objective=0.442758
objective_accelerations=0.025212
objective_balance=0.007004
objective_effort=0.022095
objective_height=0.386791
objective_ligament=0.001656
solver_duration=1432.797194
status=Solve_Succeeded
success=true
DataType=double
version=3
OpenSimVersion=4.5
endheader
time	/jointset/ground_pelvis/pelvis_tilt/value	/jointset/ground_pelvis/pelvis_tx/value	/jointset/ground_pelvis/pelvis_ty/value	/jointset/hip_l/hip_flexion_l/value	/jointset/hip_l/hip_adduction_l/value	/jointset/hip_l/hip_rotation_l/value	/jointset/back/lumbar_extension/value	/jointset/patellofemoral_l/patellar_flexion_l/value	/jointset/knee_l/knee_flexion_l/value	/jointset/knee_l/knee_adduction_l/value	/jointset/knee_l/knee_rotation_l/value	/jointset/ankle_l/ankle_angle_l/value	/jointset/subtalar_l/subtalar_angle_l/value	/jointset/ground_pelvis/pelvis_tilt/speed	/jointset/ground_pelvis/pelvis_tx/speed	/jointset/ground_pelvis/pelvis_ty/speed	/jointset/hip_l/hip_flexion_l/speed	/jointset/hip_l/hip_adduction_l/speed	/jointset/hip_l/hip_rotation_l/speed	/jointset/back/lumbar_extension/speed	/jointset/patellofemoral_l/patellar_flexion_l/speed	/jointset/knee_l/knee_flexion_l/speed	/jointset/knee_l/knee_adduction_l/speed	/jointset/knee_l/knee_rotation_l/speed	/jointset/ankle_l/ankle_angle_l/speed	/jointset/subtalar_l/subtalar_angle_l/speed	/forceset/tau_hip_flexion_l	/forceset/tau_hip_adduction_l	/forceset/tau_hip_rotation_l	/forceset/tau_knee_flexion_l	/forceset/tau_ankle_angle_l	/forceset/tau_subtalar_angle_l	/forceset/tau_lumbar_extension	lambda_cid13_p0	lambda_cid13_p1	lambda_cid13_p2	lambda_cid13_p3	lambda_cid13_p4	lambda_cid13_p5	lambda_cid14_p0	/jointset/ground_pelvis/pelvis_tilt/accel	/jointset/ground_pelvis/pelvis_tx/accel	/jointset/ground_pelvis/pelvis_ty/accel	/jointset/hip_l/hip_flexion_l/accel	/jointset/hip_l/hip_adduction_l/accel	/jointset/hip_l/hip_rotation_l/accel	/jointset/back/lumbar_extension/accel	/jointset/patellofemoral_l/patellar_flexion_l/accel	/jointset/knee_l/knee_flexion_l/accel	/jointset/knee_l/knee_adduction_l/accel	/jointset/knee_l/knee_rotation_l/accel	/jointset/ankle_l/ankle_angle_l/accel	/jointset/subtalar_l/subtalar_angle_l/accel	gamma_cid13_p0	gamma_cid13_p1	gamma_cid13_p2	gamma_cid13_p3	gamma_cid13_p4	gamma_cid13_p5	gamma_cid14_p0
0.5	-0.2961985821019173	-0.009697567566496677	0.8328053212399887	0.8712883108438698	-0.3008816193000239	-0.1192045568583731	-0.289975005468679	0.4671343881947803	0.4671343881947679	-0.1740042484037898	0.1736383537000046	0.05003710146286626	-0.03473501932349181	-0.3596169547103796	-0.1570007494128281	-0.2328528748833154	1.34289254526082	-0.06411157510633721	0.4165815901173251	-0.6383009908173484	1.194028378112171	1.19402837811217	-0.001650169972730796	0.004239910950728599	0.2704273890189632	-0.02315233429582555	-0.1578892411891181	0.02493982863780173	-0.02112394776092032	-0.1867074665490199	0.1019768860673854	0.03321685446861916	0.1641035413262427	-6.883787825628575	-17.73999786282035	7.587857295950783	1.886822878979601	-616.8745282397799	-62.00820379482332	-38.50468024485923	0.2268287523926931	0.2805637189548327	-0.1503411406458176	-0.7764874985877396	0.3107536436221268	-0.2098240249210493	1.061494139825206	-0.6645790196450613	-0.6645790196450613	0.006932179082540096	-0.02123413549062758	-0.06306721680967074	0.2825682394585624	-1.578054835986656e-09	-5.17091848252526e-07	1.267167806606773e-07	-5.514339998208016e-08	-5.738310424816212e-08	-1.821527414308484e-07	-6.04435800741757e-08
0.51	-0.2997828224157474	-0.0112533155432431	0.8304697197251879	0.884676230662953	-0.3015075645777805	-0.115050503203815	-0.2963041421311056	0.4790397116112686	0.4790397116112683	-0.1740209115617978	0.1736805338456125	0.05273768443471778	-0.03495284859403832	-0.3571850086003971	-0.1541280121728616	-0.2342218431091265	1.334502114698477	-0.06107552797787642	0.4141735080278823	-0.6274342138045348	1.18686686140109	1.18686686140109	-0.001675833447436915	0.004190489020039076	0.2696508011448466	-0.02041406122953038	-0.1632187800500393	0.02627362864748022	-0.02104294822735745	-0.1873834316497355	0.1000252880131482	0.03411657934781732	0.1685556257871465	-7.592711017693157	-17.93723499708323	7.540046674522273	2.057534834272235	-618.9506321248574	-61.7585594432282	-38.12832921475687	0.2582918550232359	0.2937425198300864	-0.1233473383354573	-0.8987174310869502	0.3003697999903672	-0.2647072744333189	1.113088661569195	-0.7673427714550586	-0.7673427714547669	-0.006395814029163048	0.00231780445105715	-0.09071920191157738	0.2694416523539185	1.08369072830008e-09	-5.018222588149102e-07	1.114669800723905e-07	-5.711431533712307e-08	-4.736729945343593e-08	-1.738625465909597e-07	-5.737125901986716e-08
0.52	-0.3033413604055348	-0.01277971338892744	0.8281217939931715	0.8979745668572064	-0.3021030814737453	-0.1109222117648477	-0.3025218471874921	0.490868338905722	0.4908683389057359	-0.1740376473952087	0.1737220425771756	0.05542934860198826	-0.03514329817149412	-0.3544764899015204	-0.1511307232004093	-0.2353177183264072	1.324975820294958	-0.05802589874812238	0.4114291469993423	-0.6160146696093267	1.178689153705395	1.178689153705397	-0.001664705053421986	0.004105628141716194	0.2686436281027726	-0.01767639567767815	-0.1685483189109567	0.02760742865715623	-0.0209619486937882	-0.188059396750453	0.09807368995890947	0.03501630422701261	0.1730077102480554	-8.307529427988893	-18.13429370962139	7.493182919133943	2.232469250258603	-621.1241164967352	-61.53727722983722	-37.73317228371297	0.2821432701715746	0.3054740654519493	-0.09572253893974854	-1.003660266822874	0.3134700638807854	-0.2770798127404848	1.172047576304116	-0.8678172165677004	-0.8678172165677144	0.01429055282676454	-0.02832192501731007	-0.109184250401176	0.282446736569974	3.548435361928497e-09	-4.840068171798743e-07	9.659997118544833e-08	-5.86470839868618e-08	-3.780596280405714e-08	-1.647929378246672e-07	-5.415109971308434e-08
0.53	-0.3068714940446971	-0.01427555909916609	0.8257642746701159	0.9111721445724837	-0.302668065927631	-0.1068230392593641	-0.3086226790316926	0.5026102504918301	0.5026102504918227	-0.1740540537521699	0.173762566386889	0.05810980903266902	-0.03530640309851192	-0.3515071622141718	-0.1480215880922069	-0.2361396555895274	1.314359403126495	-0.05497532068275028	0.4083489128993107	-0.6040717501997349	1.169530163151173	1.169530163151167	-0.001615678440887679	0.00399817257435636	0.2674083866505069	-0.01495185581749132	-0.1737067215357913	0.02880233635776846	-0.02091554630497365	-0.1888281912109328	0.09624973097484715	0.03585588782454152	0.1773052378844988	-8.979822286648549	-18.31294307113481	7.443685793089612	2.406721898025025	-623.229655548603	-61.30691499431252	-37.32004233810092	0.3107882019592502	0.3161459562498002	-0.06846227249711941	-1.117681080781981	0.3002475041282435	-0.3320169565954124	1.217406477984446	-0.9643795376259841	-0.9643795376273756	0.0002708584273406491	-0.002135816931694538	-0.1367086323566984	0.2664315674956768	6.624180002646941e-09	-4.640958099698634e-07	7.92751103216303e-08	-6.045050533871077e-08	-2.73453090814123e-08	-1.548561119065617e-07	-5.038252598304997e-08
0.54	-0.3103706422701987	-0.0157398109137737	0.8233999293839293	0.9242581483882919	-0.3032026654356096	-0.1027563734444734	-0.3146016832108576	0.5142556842598388	0.5142556842598137	-0.1740699574144129	0.1738019799520633	0.06077671414088365	-0.03544246783557733	-0.3482794071691072	-0.1448119440742022	-0.236682910952606	1.302661040401078	-0.05194890956686542	0.4049278088808422	-0.5916491366022298	1.159393590085886	1.15939359008587	-0.001564166109930123	0.003883579233541302	0.2659325636095437	-0.01226835768719884	-0.1788651241606185	0.02999724405838062	-0.02086914391614563	-0.1895969856714141	0.09442577199078425	0.03669547142207018	0.1816027655209495	-9.659010192063491	-18.4914542771344	7.395387897017352	2.588845190393934	-625.4461920032081	-61.10522994634586	-36.88993697927351	0.3338287417148271	0.3255758474123571	-0.03998615893142177	-1.220049378213481	0.3086366739833418	-0.3452537964278645	1.267986413886784	-1.063333718781052	-1.063333718781063	0.01478769651142903	-0.02974947970836514	-0.1573005681407144	0.2742383905911033	1.037592465120968e-08	-4.418663046769012e-07	5.923092386637514e-08	-6.255337223332002e-08	-1.588966625643056e-08	-1.439598116928332e-07	-4.600719586984366e-08
0.55	-0.3138362939251539	-0.01717151174279459	0.8210315341164857	0.9372219887814193	-0.3037071285513208	-0.09872555291864832	-0.3204541768610465	0.5257950371604811	0.5257950371604474	-0.1740852701163654	0.1738401897365602	0.06342769405755179	-0.03555190491682989	-0.3448114346444882	-0.1415158282519249	-0.2369496151061063	1.289938797243324	-0.04895333423050816	0.4011859423316918	-0.5787852941485371	1.148321887630066	1.148321887630057	-0.001503888406169252	0.00375619664960305	0.2642221055461736	-0.009632147405798566	-0.183793294137739	0.03106322527488022	-0.02085725585195299	-0.1904659314529479	0.09276500662787586	0.03744470484903982	0.1856922574597223	-10.28095661302926	-18.64113062806121	7.342928826753802	2.761585003854895	-627.5273038398285	-60.87455256944014	-36.44390963916059	0.3592043573472562	0.3334757311840788	-0.01303535729506013	-1.32354799737189	0.2936189064700812	-0.3962528624167908	1.30522805419873	-1.15234514672516	-1.152345146723988	0.0007539267986537754	-0.004584478889080845	-0.1841190438285197	0.2564105351893251	1.262807467206433e-08	-4.176079232339254e-07	4.427960545593323e-08	-6.305484848134604e-08	-7.05155332455903e-09	-1.336616649431245e-07	-4.217411557853234e-08
0.5600000000000001	-0.317266081284962	-0.01856988215728304	0.8186618672447599	0.9500535595004059	-0.3041819157250658	-0.0947336710139678	-0.3261761031080807	0.5372190217090173	0.5372190217089743	-0.1741001588173843	0.1738770553289841	0.06606032926990742	-0.03563536025761348	-0.341106548139391	-0.1381458611677148	-0.2369372318090343	1.276207105572948	-0.04601372117382368	0.3971400846522151	-0.5655356559713125	1.136319919664537	1.136319919664537	-0.001479365922799028	0.003614740819564066	0.2622636227470684	-0.007072009593404968	-0.1887214641148539	0.0321292064913762	-0.0208453677877764	-0.1913348772344805	0.0911042412649655	0.03819393827600533	0.1897817493985023	-10.91110527770239	-18.79056225707803	7.291791678768221	2.947468453011877	-629.7369275558477	-60.67238285534847	-35.982157268212	0.381211537810512	0.3403460997988557	0.01583133118305264	-1.421939080738108	0.2974442180487875	-0.4060520224931187	1.345145558593135	-1.249386820722784	-1.249386820722785	0.007636652433314229	-0.03256412892852093	-0.2069055152877738	0.2590238967897686	1.308071113966934e-08	-3.909148904109334e-07	3.5439728699267e-08	-6.163465595347227e-08	-1.354476264419661e-09	-1.240813023502395e-07	-3.899173507349499e-08
0.5700000000000001	-0.3206576859926385	-0.01993422441679253	0.8162937147656955	0.9627429636482672	-0.3046275206937442	-0.09078371600495937	-0.3317637184760955	0.5485184941222615	0.5485184941222555	-0.1741147843426914	0.1739123780163178	0.06867220008345684	-0.0356935162545339	-0.3371772517846896	-0.1347138871890938	-0.2366466680547851	1.261518231949996	-0.04311375717710413	0.392799349693576	-0.5519371854802522	1.123431324507587	1.123431324507587	-0.001438664581576416	0.003448180510984366	0.2600727770868926	-0.004568353248642059	-0.1934284009695912	0.03307286945684976	-0.02086352187331212	-0.1922663800700019	0.08959128652108188	0.03886850261717131	0.1936708208018449	-11.48675750589422	-18.91788203375876	7.238014501141411	3.113492908861252	-631.7914401124638	-60.45272480342702	-35.50586791571768	0.4043592103929645	0.3459164123190814	0.04265866351926499	-1.515685378550125	0.2853389802766255	-0.4558592332232123	1.374732617107711	-1.330074196372169	-1.330074196372105	0.00328881011234603	-0.008963397124090116	-0.2308417252540282	0.2447171473221527	1.306055438148533e-08	-3.633275651970619e-07	2.836644497298442e-08	-5.959418011599146e-08	3.29918164940497e-09	-1.143491080093958e-07	-3.598155411924331e-08
0.58	-0.3240088836315506	-0.0212639882634308	0.8139298658773683	0.975280814284804	-0.3050443127244958	-0.08687872334567284	-0.3372138421746504	0.5596847849172988	0.5596847849173286	-0.1741288024675606	0.1739459828175016	0.07126102891363022	-0.03572689955920615	-0.3330251343862629	-0.1312301785934714	-0.2360765136615992	1.245896403307987	-0.04025113358866134	0.3881476147079805	-0.5380373220793798	1.109683596022997	1.109683596022997	-0.001357885834529168	0.003271163590349286	0.2576552260718548	-0.002117471143775246	-0.1981353378243197	0.03401653242232282	-0.02088167595887161	-0.1931978829055193	0.08807833177719766	0.0395430669583367	0.1975598922051964	-12.07095808063414	-19.04499955242875	7.185683731678451	3.293887083444402	-633.9790026282418	-60.26078459883843	-35.0169046344961	0.4257757465556176	0.3506930231991126	0.07174945897037167	-1.60853008454967	0.2899761363934399	-0.4682520278844258	1.405424140555547	-1.421213486250613	-1.421213486250672	0.01565213359825489	-0.03465545133960633	-0.2522465862602227	0.2484690488105497	1.242466691064588e-08	-3.345755801253009e-07	2.359384054208518e-08	-5.674589345669688e-08	6.593968116866232e-09	-1.044191792991175e-07	-3.319563304508461e-08
